<?xml version="1.0" encoding="UTF-8"?>
<svg id="Camada_2" data-name="Camada 2" xmlns="http://www.w3.org/2000/svg" viewBox="0 0 662.16 673.42">
  <g id="Layer_1" data-name="Layer 1">
    <g>
      <g>
        <path d="m330.15,0c441.49,6.83,443.16,664.36,2.1,673.42C-109.17,673.26-111.62,3.31,330.15,0Zm309.23,337.73c-.82-404.62-615.19-406.21-618.22-1.32,5.85,405.23,610.54,407.59,618.22,1.32Z"/>
        <path d="m141.62,335.62c-16.67-217.35,97.11-188.67,264.46-188.11,64.98,1.02,113.09,50.5,113.3,115.41-2.16,98.73,28.84,258.01-113.64,262.34-168.87.28-280.85,28.88-264.11-189.64Zm34.82.73c-1.45,64.87-9.65,150.72,78.21,153.9,238.76,5.32,235.08,12.34,229.87-227.45-5.52-117.7-152.63-73.1-230.97-80.26-86.98,3.74-78.5,89.6-77.12,153.81Z"/>
        <path d="m331.81,243.42c121.93,2.27,122.5,183.2.23,185.81-122.1-2.15-122.14-183.36-.23-185.81Zm-60.04,93.43c2.45,78.96,119.15,78.01,120.35-1.02-2.55-79.1-119.26-77.93-120.35,1.02Z"/>
      </g>
      <path d="m452.19,237.12c-.2,28.31-43.07,27.54-43.42-.07.58-28.81,43.29-29.15,43.42.07Z"/>
    </g>
  </g>
</svg>