<?xml version="1.0" encoding="UTF-8"?>
<svg id="Camada_2" data-name="Camada 2" xmlns="http://www.w3.org/2000/svg" viewBox="0 0 662.02 673.45">
  <g id="Layer_1" data-name="Layer 1">
    <g>
      <path d="m331.94,673.45C-109.83,666.34-111.22,8.12,331.21,0c440.49,1.09,441.41,670.98.73,673.45Zm308.88-336.76c-6.64-406.68-611.12-405.46-618.26-.61,6.94,406.96,611.22,407.21,618.26.61Z"/>
      <path d="m360.29,476.16h-60.8v-198.69h57.58c.43,7.77.87,15.55,1.34,24.01,34.43-42.62,116.14-41.87,129.08,18.84,9.32,51.17,4.02,104.02,4.41,155.83h-60.88c-.02-33.36.05-66.45-.12-99.78.65-22.39-5.28-51.26-30.99-50.09-30.9-3.17-40.56,25.09-39.51,50.69-.28,33.2-.07,65.9-.11,99.17Z"/>
      <path d="m197.27,277.24h60.37v198.86h-60.37v-198.86Z"/>
      <path d="m227.86,248.45c-47.18.12-47.13-71.49.17-71.17,46.58.42,46.47,70.89-.17,71.17Z"/>
    </g>
  </g>
</svg>