<?xml version="1.0" encoding="UTF-8"?>
<svg id="Camada_2" data-name="Camada 2" xmlns="http://www.w3.org/2000/svg" viewBox="0 0 662.02 673.43">
  <g id="Layer_1" data-name="Layer 1">
    <g>
      <path d="m330.91,0c441.68,8.04,441.57,666.44-.88,673.43C-110.67,671.1-109.64,1.37,330.91,0ZM21.2,336.96c2.08,404.76,616.4,402.97,618.25.17-6.97-406.75-611.59-406.87-618.25-.17Z"/>
      <path d="m157.72,447.6c40.02,2.28,73.76-5.8,106.67-28.52-32-7.46-56.31-20.22-67.21-52.45h24.75c-30.82-14.76-48.73-37.2-50.58-72.28,9.59,2.63,18.12,4.97,26.66,7.32-26.05-28.97-35.05-59.6-16.55-97.73,40.07,46.26,90.19,68.79,148.71,76.62-10.57-67.38,67.25-116.34,120.86-71.71,13.81,9.51,33.89-6.33,51.43-7.63-7.32,10.83-14.64,21.66-23.18,34.29,10.48-2.79,19.66-5.24,28.83-7.69.69.73,1.38,1.45,2.07,2.18-8.78,9.29-16.94,19.29-26.57,27.6-6.2,5.36-8.62,10.62-8.75,18.62,7.22,166.95-182.27,259.91-317.16,171.38Z"/>
    </g>
  </g>
</svg>